# xmcd
#
# Track frame offsets:
#	150
#	14118
#	32056
#	47110
#	62765
#	82404
#	98857
#	113194
#	129321
#	150908
#	166115
#	180816
#	198079
#	211246
#	227684
#	241389
#	254465
#	270625
#	287710
#	303147
#	317349
#	334079
#
# Disc length: 4676 seconds
#
# Revision: 0
# Processed by: cddbd v1.5.2PL0 Copyright (c) Steve Scherf et al.
# Submitted via: EasyCDDAExtractor 11.5.0.1
#
DISCID=24124216
DTITLE=Various Artist - NCT 125
DYEAR=2009
DGENRE=Country
TTITLE0=Brooks and Dunn ft. Billy Gibbons - Honky Tonk Stomp
TTITLE1=Lady Antebellum - Need You Now
TTITLE2=Kenny Chesney with Dave Matthews - I'm Alive
TTITLE3=Phil Vassar - Everywhere I Go
TTITLE4=Jamey Johnson - My Way To You
TTITLE5=Reba - Consider Me Gone
TTITLE6=Fast Ryde - That Thang
TTITLE7=Big Kenny - Long After I'm Gone
TTITLE8=Kellie Pickler - Didn't You Know How Much I Loved You
TTITLE9=Houston County - I Can't Make It Rain
TTITLE10=Josh Turner - Why Don't We Just Dance
TTITLE11=Miranda Lambert - White Liar
TTITLE12=Jypsi - Mister Officer
TTITLE13=Lee Brice - Love Like Crazy
TTITLE14=Steel Magnolia - Keep On Lovin' You
TTITLE15=Easton Corbin - A Little More Country Than That
TTITLE16=Mark Wayne Glasmire - Everything Is Gonna Be Alright
TTITLE17=Jason Jones - Unlikely Angel
TTITLE18=The Parks - The Party's Right Here
TTITLE19=Bill Gentry - I Want What You Want
TTITLE20=Mica Roberts - Days You Live For
TTITLE21=Blackberry Smoke - Good One Coming On
EXTD=
EXTT0=
EXTT1=
EXTT2=
EXTT3=
EXTT4=
EXTT5=
EXTT6=
EXTT7=
EXTT8=
EXTT9=
EXTT10=
EXTT11=
EXTT12=
EXTT13=
EXTT14=
EXTT15=
EXTT16=
EXTT17=
EXTT18=
EXTT19=
EXTT20=
EXTT21=
PLAYORDER=
